<?xml version="1.0" encoding="UTF-8" standalone="no"?><!DOCTYPE svg PUBLIC "-//W3C//DTD SVG 1.1//EN" "http://www.w3.org/Graphics/SVG/1.1/DTD/svg11.dtd"><svg width="100%" height="100%" viewBox="0 0 720 720" version="1.1" xmlns="http://www.w3.org/2000/svg" xmlns:xlink="http://www.w3.org/1999/xlink" xml:space="preserve" xmlns:serif="http://www.serif.com/" style="fill-rule:evenodd;clip-rule:evenodd;stroke-linejoin:round;stroke-miterlimit:2;"><rect id="muhasabah.id_logo" x="0" y="0" width="720" height="720" style="fill:none;"/><g id="muhasabah.id_logo1" serif:id="muhasabah.id_logo"><path d="M205.02,277.746c42.353,-50.32 97.223,-90.215 154.98,-111.881c57.757,21.666 112.627,61.561 154.98,111.881l-154.98,60.955l-154.98,-60.955Z" style="fill:url(#_Linear1);"/><path d="M375.228,68.238c-0.746,0.253 -16.182,-0.342 -28.196,14.605c-8.404,10.456 -12.367,30.116 -0.299,46.097c14.216,18.827 44.324,21.675 61.078,-0.694c1.101,-1.47 1.856,-3.503 1.655,-1.673c-0.039,0.357 -0.243,0.296 -1.239,4.312c-0.861,3.473 -5.629,13.372 -10.489,18.339c-2.177,2.225 -13.198,15.15 -34.21,16.537c-23.269,1.536 -45.293,-13.925 -51.348,-37.003c-9.182,-34.997 20.42,-69.71 59.535,-61.645c1.587,0.327 1.547,0.427 3.138,0.705c0.341,0.06 0.382,0.083 0.373,0.42Z" style="fill:#fcc400;"/><path d="M169.678,582.301l-73.678,0l0,-334.017l250,97.834l-16,6.653l0,35.825l-160.322,-61.312l-0,255.017Z" style="fill:url(#_Linear2);"/><path d="M382,394.595l0,187.706l-44,0l0,-221.53l286,-112.487l0,334.017l-76.678,-0l0,-254.017l-165.322,66.312Z" style="fill:url(#_Linear3);"/></g><defs><linearGradient id="_Linear1" x1="0" y1="0" x2="1" y2="0" gradientUnits="userSpaceOnUse" gradientTransform="matrix(0,424.970297,-610.020571,0,169.46087,165.865075)"><stop offset="0" style="stop-color:#fc0;stop-opacity:1"/><stop offset="1" style="stop-color:#eb8f00;stop-opacity:1"/></linearGradient><linearGradient id="_Linear2" x1="0" y1="0" x2="1" y2="0" gradientUnits="userSpaceOnUse" gradientTransform="matrix(0,334.017391,-457.821664,0,96,248.283262)"><stop offset="0" style="stop-color:#80ff6a;stop-opacity:1"/><stop offset="1" style="stop-color:#2c8b34;stop-opacity:1"/></linearGradient><linearGradient id="_Linear3" x1="0" y1="0" x2="1" y2="0" gradientUnits="userSpaceOnUse" gradientTransform="matrix(-0,334.017391,457.821664,0,624,248.283262)"><stop offset="0" style="stop-color:#6adeff;stop-opacity:1"/><stop offset="1" style="stop-color:#2c5eba;stop-opacity:1"/></linearGradient></defs></svg>