<?xml version="1.0" encoding="UTF-8"?>
<svg version="1.1" xmlns="http://www.w3.org/2000/svg" width="720" height="720">
<path d="M0 0 C-2.85809138 1.54350015 -5.54382699 2.46028504 -8.6875 3.25 C-18.90405392 6.28046093 -27.20383173 13.16689711 -32.38671875 22.49609375 C-36.19578674 31.49084026 -36.78582097 42.16005092 -33.375 51.375 C-32.62598115 52.93783172 -31.83408636 54.48086466 -31 56 C-30.59910156 56.77988281 -30.19820312 57.55976563 -29.78515625 58.36328125 C-24.99797342 66.61943714 -17.3889153 71.21941895 -8.375 73.9375 C1.96437089 76.29868966 11.28670362 75.13665432 20.375 69.4375 C20.98085938 69.02371094 21.58671875 68.60992187 22.2109375 68.18359375 C24 67 24 67 26.15625 65.96875 C28.54760517 64.71227525 28.96180419 63.44717584 30 61 C30.66 60.01 31.32 59.02 32 58 C32.66 58 33.32 58 34 58 C31.95043154 70.5023676 25.5175686 81.23043747 15.4296875 88.97265625 C7.45665232 94.32208584 -1.18845051 98.87213773 -11 98 C-11 98.66 -11 99.32 -11 100 C-10.42604492 100.14840332 -9.85208984 100.29680664 -9.26074219 100.44970703 C-1.86470629 102.50025285 4.86114645 105.51990994 11.75 108.875 C12.93013672 109.44798828 14.11027344 110.02097656 15.32617188 110.61132812 C44.8976286 125.11317528 72.41860531 144.10513653 97 166 C97.75748535 166.67071533 97.75748535 166.67071533 98.53027344 167.35498047 C106.24098448 174.21594997 113.56496872 181.46652536 120.875 188.75 C121.76711182 189.63743896 122.65922363 190.52487793 123.57836914 191.43920898 C138 205.89603106 138 205.89603106 138 209 C152.9022309 203.53429149 167.68314155 197.78836628 182.4375 191.9375 C186.14317784 190.4686205 189.84890586 188.99986762 193.5546875 187.53125 C194.4883313 187.16123871 195.4219751 186.79122742 196.38391113 186.41000366 C206.02257505 182.59188622 215.66815269 178.79156166 225.32180786 175.01150513 C227.14300381 174.29782636 228.96370701 173.58288881 230.78390503 172.8666687 C233.30389854 171.87531641 235.82552821 170.88825046 238.34765625 169.90234375 C239.09761871 169.60634277 239.84758118 169.3103418 240.62026978 169.00537109 C245.77144155 167 245.77144155 167 248 167 C248 277.55 248 388.1 248 502 C73.76 502 -100.48 502 -280 502 C-280 391.45 -280 280.9 -280 167 C-268.75003088 170.37499073 -268.75003088 170.37499073 -264.32714844 172.12207031 C-263.32811493 172.51438843 -262.32908142 172.90670654 -261.29977417 173.31091309 C-259.72052658 173.93818298 -259.72052658 173.93818298 -258.109375 174.578125 C-256.98218048 175.02208618 -255.85498596 175.46604736 -254.69363403 175.92346191 C-251.66799979 177.11601247 -248.64379232 178.31209294 -245.62020111 179.5098114 C-242.48125509 180.75214413 -239.34038569 181.98959469 -236.19970703 183.22753906 C-228.79764581 186.14624227 -221.39857984 189.07248381 -214 192 C-211.91960801 192.82294613 -209.83920505 193.64586452 -207.75878906 194.46875 C-206.80045166 194.84783508 -205.84211426 195.22692017 -204.85473633 195.61749268 C-202.16532248 196.68117295 -199.47573833 197.74442167 -196.78613281 198.80761719 C-193.58917687 200.07140625 -190.3933089 201.33788826 -187.19824219 202.60644531 C-185.77540671 203.1699625 -184.35255615 203.73344159 -182.9296875 204.296875 C-181.72554199 204.77479492 -180.52139648 205.25271484 -179.28076172 205.74511719 C-176.2109209 206.9193233 -173.12652833 207.98775895 -170 209 C-169.68482422 208.20916016 -169.68482422 208.20916016 -169.36328125 207.40234375 C-167.44475689 204.02156299 -164.84651013 201.36482359 -162.1875 198.5625 C-161.58510498 197.9236084 -160.98270996 197.2847168 -160.36206055 196.62646484 C-154.75337341 190.72001451 -149.046695 184.90938265 -143.3125 179.125 C-142.03185669 177.82477905 -142.03185669 177.82477905 -140.7253418 176.49829102 C-134.79844789 170.56345145 -128.54817775 165.2335441 -122 160 C-120.97266835 159.13635191 -119.94926683 158.26795421 -118.93359375 157.390625 C-90.23089119 132.77547476 -56.22566491 112.6277596 -21 99 C-21.79784912 98.83169678 -22.59569824 98.66339355 -23.41772461 98.48999023 C-37.18307406 95.50103107 -48.95326059 89.39491597 -57.25 77.75 C-65.5270821 64.46977913 -68.23734164 50.15777585 -64.9375 34.8125 C-61.39995914 22.61125953 -53.64630763 11.31037115 -42.52734375 4.89453125 C-29.2857204 -2.21680983 -14.60606361 -4.86868787 0 0 Z " fill="#4B9DDB" transform="translate(376,81)"/>
<path d="M0 0 C3.50073953 0.70014791 6.09832747 1.31610497 9.3067627 2.61138916 C10.13735703 2.94422409 10.96795135 3.27705902 11.82371521 3.61997986 C12.72300247 3.9854744 13.62228973 4.35096893 14.54882812 4.72753906 C15.98767113 5.30626518 15.98767113 5.30626518 17.45558167 5.89668274 C20.64911127 7.18230069 23.84013569 8.47402487 27.03125 9.765625 C29.29593138 10.67838134 31.56078674 11.59070611 33.82580566 12.50262451 C39.83710093 14.92394387 45.84638899 17.3502041 51.85516357 19.777771 C62.432431 24.05016022 73.01304776 28.314251 83.59375 32.578125 C84.7528891 33.04539505 85.9120282 33.5126651 87.10629272 33.99409485 C105.32998141 41.33876583 123.57716213 48.62220073 141.84375 55.859375 C143.00303513 56.31889809 144.16232025 56.77842117 145.35673523 57.2518692 C148.60390972 58.53852021 151.85161822 59.82381058 155.09960938 61.10839844 C156.06392883 61.49030586 157.02824829 61.87221329 158.02178955 62.26569366 C158.90256165 62.61353661 159.78333374 62.96137955 160.6907959 63.31976318 C161.4552578 63.62198666 162.2197197 63.92421013 163.00734711 64.23559189 C164.65533394 64.86778152 166.32549354 65.44183118 168 66 C168 128.37 168 190.74 168 255 C112.56 255 57.12 255 0 255 C0 170.85 0 86.7 0 0 Z " fill="#F1A200" transform="translate(170,328)"/>
<path d="M0 0 C0 83.82 0 167.64 0 254 C-54.45 254 -108.9 254 -165 254 C-165 191.63 -165 129.26 -165 65 C-108.98055913 42.48032464 -108.98055913 42.48032464 -85.46484375 33.03515625 C-71.30897402 27.34934667 -57.1536916 21.66214088 -43.004776 15.95904541 C-37.80476892 13.86316338 -32.60299846 11.77167757 -27.40090942 9.68096924 C-25.14225397 8.77212395 -22.88433255 7.86145221 -20.62716675 6.94891357 C-17.60744299 5.72825363 -14.58534888 4.51367655 -11.5625 3.30078125 C-10.71462418 2.95607285 -9.86674835 2.61136444 -8.99317932 2.25621033 C-3.34248331 0 -3.34248331 0 0 0 Z " fill="#F1A200" transform="translate(547,329)"/>
<path d="M0 0 C-2.85809138 1.54350015 -5.54382699 2.46028504 -8.6875 3.25 C-18.90405392 6.28046093 -27.20383173 13.16689711 -32.38671875 22.49609375 C-36.19578674 31.49084026 -36.78582097 42.16005092 -33.375 51.375 C-32.62598115 52.93783172 -31.83408636 54.48086466 -31 56 C-30.59910156 56.77988281 -30.19820312 57.55976563 -29.78515625 58.36328125 C-24.99797342 66.61943714 -17.3889153 71.21941895 -8.375 73.9375 C1.96437089 76.29868966 11.28670362 75.13665432 20.375 69.4375 C20.98085938 69.02371094 21.58671875 68.60992187 22.2109375 68.18359375 C24 67 24 67 26.15625 65.96875 C28.54760517 64.71227525 28.96180419 63.44717584 30 61 C30.66 60.01 31.32 59.02 32 58 C32.66 58 33.32 58 34 58 C31.95043154 70.5023676 25.5175686 81.23043747 15.4296875 88.97265625 C7.45665232 94.32208584 -1.18845051 98.87213773 -11 98 C-11 98.66 -11 99.32 -11 100 C-10.42604492 100.14840332 -9.85208984 100.29680664 -9.26074219 100.44970703 C-1.86470629 102.50025285 4.86114645 105.51990994 11.75 108.875 C12.93013672 109.44798828 14.11027344 110.02097656 15.32617188 110.61132812 C44.8976286 125.11317528 72.41860531 144.10513653 97 166 C97.75748535 166.67071533 97.75748535 166.67071533 98.53027344 167.35498047 C106.20630055 174.18508831 113.51755976 181.39219833 120.8125 188.625 C121.69623291 189.49568115 122.57996582 190.3663623 123.49047852 191.26342773 C129.10186905 196.86741747 134.18703143 202.69696135 139 209 C137.70718268 211.58563464 136.75658221 211.68289062 134.09350586 212.71386719 C133.2510582 213.04399307 132.40861053 213.37411896 131.54063416 213.71424866 C130.60812332 214.07151535 129.67561249 214.42878204 128.71484375 214.796875 C127.73701431 215.17794907 126.75918488 215.55902313 125.75172424 215.9516449 C122.48273225 217.22407793 119.21009089 218.486855 115.9375 219.75 C113.63641818 220.64416503 111.33564189 221.53911671 109.03515625 222.43481445 C104.1753304 224.32651542 99.31434243 226.21518671 94.45263672 228.10205078 C83.63124493 232.30411653 72.82839531 236.55342721 62.02511597 240.80178833 C58.50498643 242.18553985 54.98414867 243.56747514 51.46313477 244.94897461 C40.33680308 249.31625931 29.21843476 253.70212173 18.1171875 258.1328125 C16.10745103 258.93342281 14.09768616 259.73396182 12.08789062 260.53442383 C8.37818224 262.01205864 4.67164209 263.49728129 0.96679688 264.98706055 C-0.68087231 265.64401164 -2.32865195 266.30068583 -3.9765625 266.95703125 C-5.07401291 267.40219589 -5.07401291 267.40219589 -6.19363403 267.85635376 C-13.94801558 270.92826554 -18.31647159 271.38728986 -26.0234375 268.15234375 C-27.21199341 267.67472343 -27.21199341 267.67472343 -28.42456055 267.18745422 C-30.15973758 266.48814796 -31.89220448 265.78208877 -33.62225342 265.07019043 C-36.44053815 263.9105326 -39.26526728 262.76807386 -42.09228516 261.62988281 C-45.14893299 260.39893529 -48.20504787 259.16678852 -51.25912476 257.92947388 C-62.42528243 253.40702498 -73.64205168 249.01591451 -84.86087036 244.62612915 C-90.75201745 242.31916268 -96.63951892 240.00292936 -102.52734375 237.6875 C-110.54092215 234.53649077 -118.55606703 231.38955591 -126.57416916 228.25008011 C-132.17591523 226.05620623 -137.77472677 223.85493495 -143.37261963 221.65124512 C-145.7397712 220.72079045 -148.10788941 219.79279109 -150.47698975 218.86730957 C-153.74631612 217.5897726 -157.01218623 216.30377206 -160.27734375 215.015625 C-161.25361221 214.63647949 -162.22988068 214.25733398 -163.23573303 213.86669922 C-164.11821213 213.51655762 -165.00069122 213.16641602 -165.90991211 212.80566406 C-167.06552895 212.35226654 -167.06552895 212.35226654 -168.24449158 211.88970947 C-170 211 -170 211 -171 209 C-164.41219487 200.48223394 -157.16375694 192.8521052 -149.53515625 185.27441406 C-147.62785668 183.37784061 -145.73149941 181.47079695 -143.8359375 179.5625 C-136.86175513 172.58077467 -129.76107676 166.10677698 -122 160 C-120.97193571 159.13722415 -119.94852095 158.26881696 -118.93359375 157.390625 C-90.23089119 132.77547476 -56.22566491 112.6277596 -21 99 C-21.79784912 98.83169678 -22.59569824 98.66339355 -23.41772461 98.48999023 C-37.18307406 95.50103107 -48.95326059 89.39491597 -57.25 77.75 C-65.5270821 64.46977913 -68.23734164 50.15777585 -64.9375 34.8125 C-61.39995914 22.61125953 -53.64630763 11.31037115 -42.52734375 4.89453125 C-29.2857204 -2.21680983 -14.60606361 -4.86868787 0 0 Z " fill="#FABF00" transform="translate(376,81)"/>
<path d="M0 0 C11.24996912 3.37499073 11.24996912 3.37499073 15.67285156 5.12207031 C16.6719455 5.51441864 17.67103943 5.90676697 18.70040894 6.31100464 C20.27956589 6.93822922 20.27956589 6.93822922 21.890625 7.578125 C23.0172757 8.02181427 24.14392639 8.46550354 25.30471802 8.92263794 C28.33012331 10.11498296 31.35409994 11.31085897 34.37737274 12.50859833 C37.52611185 13.75523213 40.67646222 14.99778095 43.82666016 16.24072266 C47.62529468 17.7398473 51.42370491 19.23953205 55.22122192 20.7414856 C62.64470871 23.67743477 70.07323081 26.60007556 77.5078125 29.5078125 C80.02141595 30.49277939 82.53485987 31.47815185 85.04821777 32.46374512 C86.56440535 33.05754084 88.08106601 33.65013043 89.5982666 34.24133301 C97.45509396 37.30452713 105.21735981 40.50371068 112.90625 43.96875 C121.06520226 47.64192995 129.3253928 50.97009457 137.67523193 54.18234253 C141.16102345 55.52365621 144.64266653 56.87560497 148.12466431 58.22673035 C150.02941464 58.96580422 151.93434584 59.70441213 153.83944702 60.44258118 C172.1339852 67.53451493 190.38372455 74.74182773 208.64115906 81.92858887 C215.39830099 84.58729919 222.15921274 87.23607361 228.92419434 89.87477112 C232.98166087 91.45828261 237.03707375 93.04700592 241.09210205 94.63674927 C242.97765471 95.37446431 244.8641616 96.10974536 246.75164795 96.84249878 C249.32520757 97.84188303 251.89535928 98.84956904 254.46484375 99.859375 C255.22233414 100.15101028 255.97982452 100.44264557 256.76026917 100.74311829 C261.88599547 102.77199093 261.88599547 102.77199093 263 105 C256.4 107.64 249.8 110.28 243 113 C242.67 123.89 242.34 134.78 242 146 C237.91794424 145.31965737 235.19753746 144.85380488 231.55279541 143.38188171 C230.71649094 143.04760162 229.88018646 142.71332153 229.01853943 142.36891174 C228.11813431 142.00184616 227.21772919 141.63478058 226.29003906 141.2565918 C225.32584549 140.86916809 224.36165192 140.48174438 223.36824036 140.08258057 C220.1650308 138.7938462 216.96537341 137.49652017 213.765625 136.19921875 C211.4952368 135.28394072 209.22462274 134.36922277 206.95379639 133.45503235 C200.93414194 131.02998904 194.91740811 128.59778114 188.90130615 126.16394043 C182.98133517 123.77014376 177.05901721 121.38217199 171.13671875 118.99414062 C164.11018744 116.16060581 157.08378333 113.32676153 150.05847168 110.49020386 C127.10065439 101.22242765 104.11438847 92.02611341 81.12095261 82.84711933 C78.74696007 81.89893456 76.37350587 80.94940235 74 80 C74 164.15 74 248.3 74 335 C49.58 335 25.16 335 0 335 C0 224.45 0 113.9 0 0 Z " fill="#5ACA51" transform="translate(96,248)"/>
</svg>
